#!OML:ASF H:\Terrain\Walking\May29\JustinRory\Justin.ASF
:FULLY-SPECIFIED
:DEGREES
222
root 7.24863 8.17254 6.62303 -153.522 -55.6424 133.997 
lowerback 41.1436 6.58517 -19.9249 
upperback 16.1731 -3.62435 -1.40004 
thorax -0.303096 -4.49544 9.51673 
lowerneck -11.618 20.0388 -3.84082 
upperneck 8.18128 28.8574 -10.906 
head 5.44396 13.3943 -0.290275 
rclavicle 1.82882e-14 2.70347e-14 
rhumerus -53.3107 5.8265 -108.91 
rradius 45.7749 
rwrist -22.1037 
rhand -47.0118 -297.74 
rfingers 7.12502 
rthumb -19.7186 33.2401 
lclavicle 1.82882e-14 2.70347e-14 
lhumerus -24.4786 31.4495 68.0611 
lradius 48.4771 
lwrist 34.8718 
lhand -2.42367 47.3327 
lfingers 7.12502 
lthumb 23.267 75.9469 
rfemur -90.965 -47.2033 -1.91185 
rtibia 147.619 
rfoot -29.8204 27.0522 
rtoes -11.2194 
lfemur -77.0234 40.2021 -23.8378 
ltibia 139.817 
lfoot -14.8334 -33.0377 
ltoes -30.2458 
223
root 7.22761 8.15889 6.51169 -151.159 -55.3359 130.855 
lowerback 42.5359 6.81883 -20.2993 
upperback 15.386 -4.11582 -2.01906 
thorax -0.394119 -4.65872 8.42375 
lowerneck -12.2221 19.9147 -2.85671 
upperneck 8.83293 28.5703 -10.0863 
head 5.73528 13.2633 -0.0949886 
rclavicle 1.43523e-13 1.94809e-14 
rhumerus -54.3424 6.90981 -111.959 
rradius 45.1112 
rwrist -24.9067 
rhand -47.0644 -294.274 
rfingers 7.12502 
rthumb -19.7691 36.7114 
lclavicle 1.43523e-13 1.94809e-14 
lhumerus -23.1352 29.7853 67.0643 
lradius 49.9572 
lwrist 36.5561 
lhand -3.96172 47.5598 
lfingers 7.12502 
lthumb 21.7907 76.3531 
rfemur -90.8446 -49.0149 -4.71514 
rtibia 148.031 
rfoot -28.4538 29.4628 
rtoes -11.9832 
lfemur -76.8265 39.3408 -29.1915 
ltibia 141.223 
lfoot -13.221 -32.6828 
ltoes -28.2088 
224
root 7.20997 8.16311 6.38628 -151.705 -55.645 131.386 
lowerback 41.6747 6.62883 -19.5341 
upperback 16.3598 -3.7068 -2.56911 
thorax -0.309199 -4.47919 8.0643 
lowerneck -12.4334 19.7842 -2.3502 
upperneck 9.34195 28.3028 -9.44594 
head 5.88767 13.1504 0.045825 
rclavicle 1.19271e-15 -3.89618e-14 
rhumerus -54.1093 5.78417 -112.404 
rradius 44.9894 
rwrist -24.7581 
rhand -46.7979 -293.965 
rfingers 7.12502 
rthumb -19.5129 36.994 
lclavicle 1.19271e-15 -3.89618e-14 
lhumerus -21.959 29.4712 66.926 
lradius 51.6031 
lwrist 36.9213 
lhand -4.63207 47.4982 
lfingers 7.12502 
lthumb 21.1469 76.3649 
rfemur -90.9182 -48.9556 -4.53035 
rtibia 148.517 
rfoot -26.406 30.6319 
rtoes -9.37799 
lfemur -76.5264 40.5442 -31.3091 
ltibia 142.162 
lfoot -11.6125 -33.3506 
ltoes -24.472 
225
root 7.18965 8.21051 6.25739 -158.159 -57.4644 138.947 
lowerback 41.666 5.96149 -15.6135 
upperback 16.6074 -2.79685 -1.80557 
thorax -0.565614 -3.81714 6.80201 
lowerneck -12.1447 19.706 -2.14866 
upperneck 9.4164 28.0832 -8.94952 
head 5.80701 13.0993 0.101661 
rclavicle 3.85642e-14 2.82274e-14 
rhumerus -53.9186 5.18359 -112.91 
rradius 44.5735 
rwrist -24.7179 
rhand -46.7107 -294.018 
rfingers 7.12502 
rthumb -19.4292 36.9328 
lclavicle 3.85642e-14 2.82274e-14 
lhumerus -20.7517 29.1935 67.1158 
lradius 53.1085 
lwrist 37.0937 
lhand -5.03586 47.6094 
lfingers 7.12502 
lthumb 20.759 76.519 
rfemur -89.3805 -45.3827 0.73683 
rtibia 148.619 
rfoot -24.2954 29.0404 
rtoes -7.79258 
lfemur -75.6996 45.678 -27.4175 
ltibia 142.833 
lfoot -10.3085 -36.1548 
ltoes -18.5958 
226
root 7.15785 8.1066 6.19037 -146.994 -53.8143 126.214 
lowerback 41.7108 7.87949 -22.4495 
upperback 15.4763 -3.56772 -2.63337 
thorax 0.0291303 -4.51836 8.40772 
lowerneck -11.4962 19.717 -1.8556 
upperneck 9.33633 28.0312 -9.09771 
head 5.73801 13.1053 -0.0367571 
rclavicle -9.66093e-14 9.93923e-15 
rhumerus -53.4905 4.59369 -113.114 
rradius 43.2837 
rwrist -24.4916 
rhand -46.8201 -293.592 
rfingers 7.12502 
rthumb -19.5343 37.3693 
lclavicle -9.66093e-14 9.93923e-15 
lhumerus -19.7521 28.8248 67.3914 
lradius 54.5208 
lwrist 37.4744 
lhand -5.26477 47.7558 
lfingers 7.12502 
lthumb 20.539 76.6893 
rfemur -96.1496 -50.5206 -8.03448 
rtibia 149.241 
rfoot -17.3588 37.53 
rtoes -7.29837 
lfemur -75.4775 36.3023 -41.4909 
ltibia 141.179 
lfoot -11.9205 -29.0808 
ltoes -13.0774 
227
root 7.15949 8.22093 6.04666 -159.249 -57.8988 140.56 
lowerback 41.2815 6.23796 -15.3495 
upperback 16.5076 -2.1214 -0.988137 
thorax -0.695243 -3.46769 7.34312 
lowerneck -11.236 19.8332 -2.11524 
upperneck 9.69152 28.2698 -9.22003 
head 5.80518 13.1901 -0.0248569 
rclavicle 1.19271e-14 3.33958e-14 
rhumerus -53.3 4.55734 -112.936 
rradius 41.6107 
rwrist -23.8729 
rhand -46.8508 -293.357 
rfingers 7.12502 
rthumb -19.5638 37.6069 
lclavicle 1.19271e-14 3.33958e-14 
lhumerus -19.0536 29.0981 67.9206 
lradius 55.7149 
lwrist 37.6692 
lhand -5.11744 47.3704 
lfingers 7.12502 
lthumb 20.6806 76.2886 
rfemur -92.5258 -43.4973 1.92744 
rtibia 149.041 
rfoot -13.7654 33.6988 
rtoes -3.41286 
lfemur -75.2189 44.4928 -30.8337 
ltibia 142.107 
lfoot -15.3317 -32.9939 
ltoes -9.86032 
228
root 7.13701 8.24776 5.93479 -162.206 -58.938 143.881 
lowerback 41.7067 6.08696 -14.1861 
upperback 16.4343 -1.82142 0.0173213 
thorax -1.02249 -3.27631 7.78546 
lowerneck -11.2186 19.9518 -2.31823 
upperneck 10.0945 28.561 -9.56456 
head 5.97074 13.267 -0.0374663 
rclavicle -5.80451e-14 -5.96354e-15 
rhumerus -53.3104 4.83343 -112.668 
rradius 40.322 
rwrist -23.1581 
rhand -46.4457 -294.508 
rfingers 7.12502 
rthumb -19.1744 36.4176 
lclavicle -5.80451e-14 -5.96354e-15 
lhumerus -18.2525 29.711 68.6605 
lradius 56.7561 
lwrist 37.282 
lhand -4.8919 46.8689 
lfingers 7.12502 
lthumb 20.8973 75.7634 
rfemur -93.1383 -43.8764 4.18734 
rtibia 148.892 
rfoot -7.35179 35.5983 
rtoes 4.79793 
lfemur -72.0314 47.1353 -26.5761 
ltibia 142.553 
lfoot -22.8513 -30.805 
ltoes -16.1379 
229
root 7.11835 8.27482 5.8593 -167.626 -60.9235 149.436 
lowerback 42.6206 5.20704 -11.0539 
upperback 16.5528 -1.73655 1.08799 
thorax -1.33433 -3.11988 7.39187 
lowerneck -11.1347 19.9719 -2.08026 
upperneck 10.4737 28.6646 -9.9643 
head 6.17902 13.2636 -0.12727 
rclavicle -3.89618e-14 -3.97569e-14 
rhumerus -53.162 5.00088 -112.394 
rradius 39.0733 
rwrist -22.6756 
rhand -45.7785 -295.8 
rfingers 7.12502 
rthumb -18.5326 35.0632 
lclavicle -3.89618e-14 -3.97569e-14 
lhumerus -17.315 29.7486 69.3163 
lradius 57.789 
lwrist 36.7108 
lhand -4.29786 46.2971 
lfingers 7.12502 
lthumb 21.4679 75.1275 
rfemur -90.9533 -43.2529 5.77351 
rtibia 148.618 
rfoot -4.5866 36.6893 
rtoes 8.26372 
lfemur -67.5734 48.5859 -18.5525 
ltibia 142.928 
lfoot -23.3857 -35.0073 
ltoes -0.99893 
230
root 7.10549 8.29983 5.76622 -175.903 -62.4557 158.435 
lowerback 43.008 4.28179 -7.14582 
upperback 16.7339 -1.28997 2.47727 
thorax -1.46205 -2.78236 6.77517 
lowerneck -10.9524 19.9709 -1.95948 
upperneck 10.6794 28.7203 -10.3014 
head 6.28905 13.2578 -0.21943 
rclavicle 2.3059e-14 9.54166e-15 
rhumerus -52.685 4.88772 -111.889 
rradius 37.4711 
rwrist -21.894 
rhand -44.7343 -296.255 
rfingers 7.12502 
rthumb -17.528 34.5156 
lclavicle 2.3059e-14 9.54166e-15 
lhumerus -16.2334 29.4107 70.0441 
lradius 58.6063 
lwrist 36.1684 
lhand -3.76915 45.5769 
lfingers 7.12502 
lthumb 21.9756 74.3486 
rfemur -88.9283 -40.5095 9.3859 
rtibia 148.168 
rfoot -3.93931 36.3349 
rtoes 10.4915 
lfemur -63.7312 50.3434 -8.75348 
ltibia 143.163 
lfoot -25.1301 -39.6011 
ltoes 4.86103 
231
root 7.09258 8.32015 5.66504 -183.442 -63.5719 166.587 
lowerback 43.5777 3.42775 -3.89898 
upperback 16.7745 -1.04999 3.83716 
thorax -1.66418 -2.59136 6.50585 
lowerneck -10.8295 20.0185 -2.26372 
upperneck 10.6498 28.8792 -10.6802 
head 6.28761 13.3018 -0.284536 
rclavicle -3.26007e-14 3.57812e-14 
rhumerus -52.2586 4.80084 -111.207 
rradius 35.9035 
rwrist -20.5889 
rhand -44.1693 -297.085 
rfingers 7.12502 
rthumb -16.9842 33.6374 
lclavicle -3.26007e-14 3.57812e-14 
lhumerus -15.214 29.2225 70.9022 
lradius 59.369 
lwrist 35.6498 
lhand -3.64446 44.8184 
lfingers 7.12502 
lthumb 22.0953 73.5759 
rfemur -87.0931 -38.8608 11.7138 
rtibia 147.522 
rfoot -2.67659 35.9856 
rtoes 17.4466 
lfemur -60.6614 51.8016 -0.468723 
ltibia 143.158 
lfoot -30.1524 -41.8885 
ltoes -0.510065 
232
root 7.08545 8.34776 5.57978 -188.425 -64.7507 171.861 
lowerback 44.7461 2.57974 -1.70008 
upperback 16.3689 -1.14921 4.79671 
thorax -2.41717 -2.56334 6.4891 
lowerneck -11.1545 20.0741 -2.77186 
upperneck 11.2252 29.073 -10.3548 
head 6.41494 13.3417 -0.0723192 
rclavicle 1.27222e-14 -3.49861e-14 
rhumerus -52.2311 4.83027 -110.598 
rradius 34.1272 
rwrist -19.386 
rhand -43.0908 -299.063 
rfingers 7.12502 
rthumb -15.9458 31.5732 
lclavicle 1.27222e-14 -3.49861e-14 
lhumerus -14.7807 29.2587 71.4468 
lradius 60.4613 
lwrist 34.9553 
lhand -3.22769 44.2045 
lfingers 7.12502 
lthumb 22.4954 72.9142 
rfemur -85.2749 -39.0282 12.0023 
rtibia 146.757 
rfoot -3.732 35.7624 
rtoes 20.3071 
lfemur -59.0119 51.1378 3.62963 
ltibia 142.763 
lfoot -35.403 -41.1951 
ltoes -6.75371 
